<svg width="191" height="191" viewBox="0 0 191 191" fill="none" xmlns="http://www.w3.org/2000/svg">
<g clip-path="url(#clip0_20_2)">
<circle cx="95.5" cy="95.5" r="95.5" fill="#FCD72B"/>
<mask id="mask0_20_2" style="mask-type:alpha" maskUnits="userSpaceOnUse" x="0" y="0" width="191" height="191">
<path fill-rule="evenodd" clip-rule="evenodd" d="M191 0H0V191H67.1649L74.7458 110.727H74.0378C67.8029 110.727 62.6459 108.493 57.9003 104.424C53.1548 100.355 50.0054 94.7181 49.0172 88.524L63.7149 78.964V78.8453C63.7145 72.3297 66.2142 66.0655 70.6927 61.3593C75.1712 56.6532 81.2826 53.8686 87.7522 53.5864V53.56H92.1225V38.1691C95.221 38.1691 98.2189 39.2731 100.585 41.2856C102.952 43.298 104.534 46.0886 105.05 49.1626H105.233V38.1691C107.563 38.1691 109.85 38.7933 111.86 39.9777C113.869 41.162 115.529 42.8636 116.669 44.9075C117.808 46.9514 118.386 49.2639 118.343 51.6069C118.3 53.95 117.636 56.2391 116.422 58.239C120.37 60.8348 123.612 64.38 125.856 68.5537C128.099 72.7275 129.273 77.3983 129.271 82.1434V181.635C129.271 183.094 129.847 184.492 130.871 185.522C131.896 186.553 133.286 187.132 134.734 187.132H191V0Z" fill="black"/>
</mask>
<g mask="url(#mask0_20_2)">
<circle cx="95.5" cy="95.5" r="95.5" fill="black"/>
</g>
<path d="M78.8734 82.2514C78.8744 81.5592 79.1498 80.8957 79.6392 80.4062C80.1285 79.9167 80.7919 79.6413 81.484 79.6403H89.084C89.084 81.0263 88.5335 82.3556 87.5536 83.3357C86.5738 84.3157 85.2448 84.8664 83.859 84.8664H78.634L78.8734 82.2514Z" fill="black"/>
</g>
<defs>
<clipPath id="clip0_20_2">
<rect width="191" height="191" fill="white"/>
</clipPath>
</defs>
</svg>
