<svg width="191" height="191" viewBox="0 0 191 191" fill="none" xmlns="http://www.w3.org/2000/svg">
<g clip-path="url(#clip0_20_2)">
<circle cx="95.5" cy="95.5" r="95.5" fill="#CCFF00"/>
<path d="M113.802 57.828C97.44 75.936 71.34 106.17 47.358 167.232C47.16 167.712 46.584 168 46.008 168H42.828C42.156 168 41.868 167.616 42.06 166.842C45.24 155.094 49.572 142.092 56.406 122.928V96.348C56.406 91.248 57.18 87.684 60.258 83.832L81.258 57.828C81.5641 57.4016 81.9692 57.0559 82.4385 56.8208C82.9078 56.5856 83.4272 56.468 83.952 56.478H113.232C114.192 56.478 114.48 57.06 113.802 57.828ZM148.476 27.876C153.576 33.276 154.254 46.272 153.096 54.75C152.232 60.528 151.266 61.776 148.086 65.916L128.538 91.44C127.962 92.304 127.194 92.016 127.194 91.056V54.456C127.194 51.474 125.454 49.74 122.472 49.74H90.012C89.052 49.74 88.764 49.068 89.442 48.39C95.7241 41.6662 102.379 35.3002 109.374 29.322C110.244 28.554 112.17 27.3 114.096 26.532C123.534 22.872 143.946 23.064 148.476 27.876ZM120.354 64.38V101.16C120.354 101.646 120.258 102.324 119.97 102.9L106.584 124.95C104.946 127.65 103.02 129 99.648 130.056L69.6 139.296C68.736 139.596 68.256 138.918 68.64 138.24C83.178 109.836 98.88 86.238 119.004 63.798C119.682 63.03 120.354 63.414 120.354 64.38Z" fill="black"/>
</g>
<defs>
<clipPath id="clip0_20_2">
<rect width="191" height="191" fill="white"/>
</clipPath>
</defs>
</svg>
