<svg width="512" height="512" viewBox="0 0 512 512" fill="none" xmlns="http://www.w3.org/2000/svg">
<g clip-path="url(#clip0_3112_2)">
<path d="M256 512C397.385 512 512 397.385 512 256C512 114.615 397.385 0 256 0C114.615 0 0 114.615 0 256C0 397.385 114.615 512 256 512Z" fill="white"/>
<path d="M219.747 438.655C215.192 429.144 210.371 419.773 206.42 409.995C206.228 409.507 206.053 409.008 205.898 408.497C205.107 405.942 205.189 405.698 207.873 405.013C214.031 403.527 220.316 402.691 226.59 401.831C232.132 401.065 237.698 400.508 243.251 399.869C244.986 399.683 246.6 398.89 247.805 397.629C249.011 396.369 249.731 394.722 249.839 392.983C250.21 388.558 249.816 384.105 248.677 379.814C247.903 377.08 247.128 374.34 246.353 371.592C245.783 369.685 244.767 367.942 243.391 366.506C241.432 364.298 239.811 361.813 238.581 359.132C237.616 356.949 238.093 354.347 238.581 351.967C238.813 350.887 239.963 350.805 240.904 350.643C245.882 349.643 250.935 349.064 256.008 348.913C263.7 348.495 271.403 348.1 279.118 348.251C280.24 348.08 281.388 348.23 282.429 348.68C282.415 348.965 282.322 349.239 282.159 349.473C281.998 349.707 281.773 349.892 281.511 350.004C273.599 354.765 269.649 362.035 268.243 370.907C267.824 373.508 267.371 376.109 266.93 378.699C265.873 384.877 266.93 390.869 268.243 396.873C268.649 398.719 269.846 398.754 271.298 398.789C279.211 398.998 287.134 398.789 295.047 399.416C299.462 399.741 303.9 399.846 308.327 400.078C309.036 400.078 309.826 399.904 310.581 400.74C309.279 403.062 307.839 405.141 304.771 405.815C301.708 406.555 298.604 407.122 295.477 407.51C291.48 407.957 287.617 409.217 284.125 411.214C282.011 412.376 279.919 413.63 277.793 414.803C275.84 416.068 274.24 417.812 273.146 419.866C272.636 420.802 272.479 421.89 272.704 422.932C275.202 441.152 275.934 459.488 276.399 477.848C276.527 482.899 277.073 487.951 277.317 493.002C277.999 509.345 277.611 525.715 276.155 542.007C275.205 551.599 272.336 560.904 267.72 569.367C265.584 573.607 263.154 577.693 260.447 581.595C255.044 589.143 248.828 595.937 240.219 599.815C232.19 603.438 223.755 605.761 214.797 605.494C213.252 605.494 211.312 605.738 210.719 603.856C210.127 601.975 211.986 601.267 213.287 600.454C214.588 599.641 215.785 598.875 217.051 598.131C225.452 593.196 229.565 585.59 230.75 576.183C231.26 572.844 231.346 569.453 231.005 566.092C230.166 560.429 227.663 555.141 223.813 550.903C223.116 550.067 222.326 549.498 223.256 548.267C228.472 541.415 232.039 533.646 235.653 525.912C239.789 517.133 242.136 507.785 244.285 498.402C246.101 490.33 247.423 482.155 248.247 473.923C249.245 462.725 249.42 451.468 248.77 440.246C248.538 434.358 248.294 428.494 247.864 422.618C247.713 420.458 246.702 420.005 244.82 420.144C238.325 420.621 232.365 422.85 226.52 425.475C225.281 425.953 224.236 426.83 223.55 427.967C222.864 429.105 222.577 430.438 222.733 431.757C222.884 435.496 222.803 439.259 222.733 443.776C220.932 441.79 220.769 439.944 219.747 438.655Z" fill="#00BFFF"/>
<path d="M306.026 355.404C305.12 353.023 304.295 350.759 303.412 348.529C302.892 347.145 302.628 345.677 302.634 344.198C302.634 341.341 304.237 339.739 307.118 339.553C309.548 339.378 311.987 339.751 314.252 340.644C315.031 340.946 315.809 341.283 316.576 341.539C318.086 342.026 318.33 341.806 318.481 340.133C318.592 339.242 318.481 338.336 318.162 337.496C317.842 336.656 317.322 335.906 316.646 335.314C314.533 333.396 312.671 331.218 311.104 328.834C309.988 327.279 309.435 325.391 309.535 323.481C309.567 322.898 309.737 322.332 310.035 321.831C310.332 321.329 310.747 320.908 311.243 320.601C312.473 319.887 313.882 319.534 315.304 319.583C316.726 319.633 318.105 320.082 319.283 320.88C324.034 324.391 329.023 327.569 334.213 330.39C334.88 330.702 335.439 331.206 335.818 331.836C336.197 332.467 336.379 333.197 336.339 333.932C336.455 338.961 334.713 343.455 332.412 347.763C328.566 354.998 323.257 361.141 317.633 367.005C310.987 373.973 303.912 380.394 296.615 386.63C295.351 387.749 294.156 388.944 293.037 390.207C292.713 390.623 292.259 390.918 291.748 391.049C291.237 391.179 290.698 391.136 290.213 390.927C285.636 389.325 280.919 384.738 281.674 378.339C281.699 377.155 282.166 376.022 282.983 375.163C283.799 374.304 284.907 373.78 286.089 373.694C287.767 373.466 289.472 373.55 291.12 373.938C294.512 374.704 296.29 372.928 295.593 369.455C295.198 367.493 294.71 365.554 294.257 363.649C294.156 363.352 294.071 363.049 294.001 362.743C293.397 357.727 294.164 355.067 300.229 355.207C302.123 355.253 303.981 355.752 306.026 355.404Z" fill="#2B4261"/>
<path d="M209.545 355.242C211.81 355.242 214.006 355.184 216.202 355.242C220.722 355.405 222.453 357.681 221.466 362.105C221.001 364.16 220.42 366.181 219.99 368.236C219.772 369.16 219.686 370.11 219.734 371.058C219.705 371.561 219.802 372.065 220.013 372.523C220.226 372.98 220.549 373.377 220.953 373.681C221.356 373.982 221.829 374.18 222.329 374.255C222.827 374.331 223.337 374.282 223.812 374.113C225.452 373.7 227.145 373.54 228.832 373.636C230.119 373.653 231.352 374.159 232.278 375.052C233.204 375.946 233.755 377.159 233.816 378.444C234.42 383.693 230.574 389.348 224.73 390.962C224.275 391.092 223.789 391.08 223.341 390.925C222.892 390.772 222.502 390.485 222.221 390.103C213.844 381.974 204.7 374.554 196.741 365.949C190.734 359.446 184.948 352.71 181.381 344.442C179.921 341.27 179.13 337.83 179.058 334.339C178.975 333.503 179.154 332.661 179.57 331.931C179.986 331.2 180.619 330.617 181.381 330.263C186.503 327.531 191.401 324.401 196.032 320.903C198.612 318.987 201.214 319.371 203.817 320.427C205.827 321.24 206.443 323.586 205.571 326.234C204.545 328.785 203.002 331.098 201.04 333.027C200.204 333.968 199.262 334.839 198.368 335.733C197.606 336.471 197.072 337.415 196.834 338.45C196.637 338.944 196.566 339.479 196.631 340.007C196.696 340.536 196.895 341.039 197.206 341.469C198.019 342.282 198.972 341.469 199.832 341.156C202.352 340.045 205.084 339.498 207.837 339.553C211.52 339.739 213.193 341.644 212.74 345.36C212.3 347.962 211.518 350.496 210.416 352.896C210.091 353.663 209.336 354.394 209.545 355.242Z" fill="#2B4261"/>
<path d="M160.684 300.324L154.06 290.756L186.199 228.195L225.943 188.451L243.362 186.979L252.931 268.676L160.684 300.324Z" fill="#00BFFF"/>
<path d="M283.156 334.233C281.593 333.816 281.014 332.716 280.157 331.986C277.041 329.276 274.25 328.975 270.648 330.944C269.519 331.54 268.358 332.078 267.174 332.554C266 333.041 264.714 333.191 263.459 332.986C262.204 332.782 261.032 332.231 260.074 331.396C257.85 329.739 257.758 329.67 255.858 331.257C254.833 332.176 253.559 332.77 252.196 332.964C250.833 333.157 249.443 332.942 248.203 332.345C247.137 331.894 246.095 331.396 245.064 330.851C241.59 328.987 238.845 329.288 235.799 331.836C234.93 332.577 234.374 333.689 233.181 334.036C233.075 334.056 232.965 334.056 232.857 334.036C232.035 333.353 232.289 332.31 232.116 331.419C230.378 322.095 226.672 313.757 219.735 307.097C214.866 302.577 209.134 299.086 202.883 296.836C201.436 296.28 200.567 296.465 199.826 297.924C197.856 301.67 194.972 304.856 191.441 307.19C188.363 309.227 185.698 311.828 183.588 314.857C183.302 315.358 182.845 315.738 182.299 315.928C181.754 316.118 181.158 316.103 180.623 315.888C177.137 315.032 173.889 313.404 171.115 311.127C167.454 308.123 164.144 304.716 161.247 300.97C160.089 299.58 160.158 299.349 161.872 298.399C168.706 294.654 175.211 290.337 181.318 285.497C186.604 281.321 191.585 276.773 196.224 271.889C197.382 270.73 198.17 270.51 199.698 271.483C211.28 278.953 222.943 278.073 234.444 271.194C239.108 268.303 243.084 264.43 246.095 259.844C244.497 258.268 242.493 258.396 240.744 257.99C232.669 256.037 224.86 253.112 217.488 249.281C215.299 248.123 215.264 248.123 216.561 246.038C226.904 229.662 234.27 211.895 239.945 193.434C240.398 192.142 240.75 190.818 240.999 189.473C241.002 189.135 241.075 188.802 241.214 188.494C241.354 188.187 241.556 187.912 241.808 187.687C242.06 187.462 242.356 187.293 242.678 187.19C242.999 187.086 243.338 187.051 243.674 187.087C248.18 186.832 252.662 186.195 257.155 186.079C260.644 186.018 264.13 186.251 267.579 186.774C269.988 187.122 272.397 187.133 274.794 187.296C288.532 188.033 302.223 189.464 315.817 191.581C327.549 193.526 339.131 196.074 350.157 200.742C352.989 201.868 355.411 203.826 357.106 206.359C361.136 212.439 362.711 219.25 363.036 226.372C363.31 231.522 363.109 236.686 362.433 241.799C362.067 245.669 361.143 249.464 359.689 253.068C359.079 254.414 358.584 255.808 358.206 257.238C357.384 260.33 358.206 262.299 360.986 263.839C363.105 264.997 365.364 265.889 367.518 266.978C373.598 270.035 373.737 270.395 370.587 276.313C365.028 286.841 358.658 296.836 350.574 305.672C346.497 310.097 342.05 314.15 335.923 315.656C333.386 316.281 333.386 316.316 331.811 314.15C330.127 311.856 328.096 309.84 325.789 308.174C321.782 305.232 317.948 302.128 315.759 297.484C315.122 296.129 314.126 296.43 313.095 296.824C300.147 301.7 290.465 309.9 285.855 323.381C284.774 326.95 283.874 330.572 283.156 334.233Z" fill="#2B4261"/>
<path d="M187.953 247.463C187.906 252.263 188.936 257.011 190.964 261.361C191.543 262.682 191.682 263.574 190.616 264.72C180.888 275.26 169.931 284.154 156.775 290.119C154.273 291.277 154.227 291.277 152.767 289.03C149.38 283.827 146.286 278.436 143.502 272.885C143.309 272.608 143.175 272.293 143.113 271.962C143.05 271.63 143.058 271.288 143.137 270.96C143.216 270.631 143.363 270.323 143.57 270.056C143.776 269.789 144.038 269.569 144.336 269.411C146.928 267.611 149.699 266.086 152.605 264.859C153.462 264.442 154.354 264.106 155.153 263.62C156.262 263.089 157.132 262.166 157.597 261.029C158.061 259.893 158.086 258.624 157.666 257.47C157.407 256.24 157.019 255.04 156.508 253.891C154.389 249.664 153.787 245.089 153.265 240.491C152.283 233.174 152.455 225.749 153.775 218.486C154.38 215.599 155.3 212.786 156.52 210.101C157.547 207.738 159.052 205.615 160.938 203.863C162.826 202.11 165.057 200.768 167.488 199.92C176.349 196.598 185.494 194.089 194.809 192.427C204.318 190.643 213.907 189.462 223.52 188.535C227.238 188.176 227.215 188.234 226.427 192.01C223.204 207.782 217.696 222.999 210.074 237.179C209.333 238.569 208.429 239.866 207.653 241.244C206.877 242.622 205.893 242.819 204.584 241.858C201.191 239.368 197.716 237.005 194.357 234.48C190.512 231.573 190.501 231.515 189.435 236.079C188.455 239.794 187.956 243.621 187.953 247.463Z" fill="#2B4261"/>
<path d="M326.275 235.869C328.336 243.513 328.834 251.157 325.951 258.708C322.024 268.981 314.369 274.819 303.656 276.278C292.595 277.772 283.237 273.962 275.315 266.283C273.082 264.32 271.182 262.008 269.687 259.438C276.219 257.62 282.728 256.218 288.877 253.647C295 251.134 300.927 248.168 306.609 244.776C312.339 241.262 317.875 237.442 323.194 233.333C323.371 233.101 323.587 232.901 323.831 232.742C325.557 232.904 325.557 232.904 326.275 235.869Z" fill="white"/>
<path d="M31.2875 158.7C31.9592 157.97 32.6194 158.503 33.3027 158.7C39.1237 160.519 45.1033 161.786 51.1618 162.487C60.1874 163.456 69.3115 162.142 77.6955 158.665C88.1191 154.426 96.6317 147.477 104.252 139.324C115.579 127.197 124.625 113.392 133.867 99.714C142.229 87.3447 150.603 74.9638 160.505 63.6832C169.284 53.6186 179.152 44.8744 191.162 38.7824C195.639 36.5089 200.345 34.7161 205.199 33.4317C208.511 32.563 208.569 32.563 209.658 35.748C211.695 41.6281 214.787 47.0877 218.784 51.8582C225.791 60.2087 234.327 66.2543 245.098 68.7676C247.641 69.4312 250.263 69.7474 252.892 69.7057C257.826 69.4972 262.749 70.0184 267.682 69.2888C276.37 67.9557 284.466 64.0689 290.939 58.1239C298.061 51.9648 303.404 44.0104 306.412 35.0879C307.222 32.6789 307.292 32.6557 309.724 33.2464C321.619 36.1418 331.973 42.0022 341.331 49.7503C352.912 59.3053 361.981 70.9797 370.551 83.1058C378.195 93.9231 385.608 104.937 393.055 115.859C398.901 124.615 405.488 132.853 412.744 140.482C421.256 149.214 430.765 156.557 442.706 160.24C452.614 163.235 463.136 163.566 473.212 161.201C476.385 160.507 479.512 159.615 482.628 158.711C483.105 158.508 483.636 158.461 484.141 158.578C484.647 158.694 485.102 158.968 485.442 159.36C485.763 159.709 485.958 160.156 485.994 160.628C486.029 161.101 485.904 161.572 485.639 161.966C483.609 166.494 480.47 170.437 476.513 173.432C475.135 174.59 473.64 175.563 472.204 176.617C463.495 183.056 454.658 189.357 446.956 196.989C437.589 206.436 430.385 217.805 425.843 230.31C424.766 233.159 423.735 236.019 422.623 238.857C422.221 239.939 421.713 240.979 421.106 241.961C419.38 244.659 417.423 245.088 414.689 243.397C412.07 241.613 409.781 239.387 407.926 236.819C403.293 231.028 398.765 225.04 394.259 219.087C392.545 216.852 392.615 216.771 395.325 215.612C397.155 214.836 398.996 214.049 400.826 213.296C401 213.227 401.127 213.018 401.567 212.613C399.458 210.197 397.089 208.022 394.502 206.127C386.835 199.769 378.114 195.09 369.023 191.071C353.284 184.236 336.776 179.336 319.858 176.478C308.393 174.373 296.821 172.905 285.194 172.077C280.26 171.752 275.326 171.741 270.416 171.393C265.505 171.046 260.756 170.919 255.927 171.011C241.545 171.143 227.181 172.071 212.901 173.791C195.364 175.903 178.084 179.783 161.327 185.373C149.248 189.519 137.643 194.638 127.057 201.923C123.242 204.541 119.633 207.45 116.263 210.621C115.591 211.235 114.688 211.779 114.653 212.937C116.746 214.086 118.931 215.058 121.185 215.844C123.154 216.678 123.281 216.944 122.088 218.543C116.749 225.7 111.468 232.916 105.561 239.645C104.334 241.089 102.892 242.34 101.288 243.351C98.4732 245.042 96.6548 244.659 94.8481 241.949C93.0413 239.239 92.2653 236.158 91.223 233.24C86.127 218.844 78.4831 206.034 67.4341 195.414C65.6436 193.64 63.7523 191.968 61.7706 190.411C55.308 185.535 49.2044 180.207 42.4523 175.702C37.8196 172.644 33.8355 168.973 31.3107 163.923C30.8451 163.088 30.4571 162.211 30.1525 161.306C30.061 161.232 29.9857 161.14 29.9324 161.037C29.8792 160.933 29.8479 160.818 29.8409 160.701C29.8351 160.584 29.8525 160.467 29.8942 160.358C29.9359 160.248 30.0008 160.149 30.083 160.066C30.442 159.568 30.9169 159.186 31.2875 158.7Z" fill="#2B4261"/>
<path d="M306.099 356.262C305.196 353.888 304.374 351.629 303.493 349.405C302.975 348.025 302.712 346.561 302.717 345.086C302.717 342.236 304.316 340.638 307.188 340.453C309.61 340.278 312.041 340.651 314.299 341.542C315.075 341.843 315.851 342.178 316.616 342.433C318.121 342.92 318.364 342.7 318.515 341.032C318.625 340.142 318.515 339.239 318.196 338.402C317.878 337.563 317.359 336.816 316.685 336.225C314.579 334.312 312.723 332.141 311.16 329.763C310.049 328.212 309.497 326.329 309.597 324.424C309.628 323.842 309.799 323.278 310.095 322.778C310.391 322.278 310.805 321.857 311.299 321.551C312.526 320.839 313.93 320.487 315.347 320.536C316.765 320.585 318.14 321.034 319.314 321.829C324.05 325.332 329.023 328.5 334.197 331.315C334.861 331.625 335.418 332.128 335.796 332.757C336.175 333.386 336.355 334.114 336.316 334.847C336.432 339.862 334.695 344.344 332.401 348.641C328.568 355.857 323.275 361.983 317.669 367.832C311.045 374.781 303.991 381.186 296.718 387.405C295.458 388.521 294.266 389.712 293.151 390.972C292.828 391.387 292.376 391.681 291.866 391.812C291.357 391.942 290.82 391.899 290.337 391.69C285.773 390.092 281.071 385.517 281.824 379.136C281.849 377.954 282.315 376.825 283.129 375.968C283.942 375.111 285.047 374.589 286.225 374.503C287.897 374.276 289.598 374.36 291.24 374.746C294.622 375.511 296.394 373.739 295.699 370.276C295.305 368.318 294.819 366.384 294.367 364.485C294.266 364.188 294.182 363.886 294.112 363.582C293.51 358.578 294.274 355.926 300.32 356.065C302.208 356.111 304.061 356.609 306.099 356.262Z" fill="#2B4261"/>
<path d="M209.923 356.1C212.181 356.1 214.37 356.042 216.559 356.1C221.064 356.262 222.79 358.532 221.806 362.944C221.342 364.994 220.763 367.01 220.335 369.06C220.117 369.98 220.031 370.928 220.08 371.874C220.051 372.376 220.147 372.878 220.358 373.334C220.57 373.791 220.892 374.187 221.295 374.489C221.697 374.79 222.168 374.987 222.666 375.062C223.163 375.138 223.671 375.089 224.145 374.92C225.779 374.509 227.467 374.349 229.148 374.445C230.432 374.461 231.661 374.966 232.584 375.857C233.507 376.749 234.056 377.958 234.117 379.24C234.719 384.475 230.886 390.115 225.06 391.725C224.606 391.855 224.122 391.842 223.675 391.688C223.228 391.535 222.839 391.249 222.558 390.868C214.208 382.761 205.093 375.36 197.16 366.778C191.172 360.292 185.404 353.575 181.849 345.329C180.393 342.165 179.604 338.734 179.532 335.253C179.45 334.419 179.628 333.579 180.043 332.85C180.458 332.122 181.089 331.541 181.849 331.187C186.954 328.462 191.837 325.341 196.453 321.852C199.024 319.942 201.619 320.324 204.213 321.378C206.217 322.188 206.83 324.528 205.962 327.168C204.939 329.713 203.401 332.02 201.445 333.944C200.611 334.882 199.673 335.751 198.781 336.642C198.021 337.379 197.49 338.321 197.252 339.352C197.055 339.845 196.985 340.379 197.05 340.906C197.114 341.433 197.313 341.934 197.623 342.364C198.434 343.174 199.383 342.364 200.24 342.051C202.752 340.943 205.477 340.397 208.22 340.453C211.892 340.638 213.559 342.537 213.108 346.244C212.669 348.839 211.889 351.366 210.791 353.76C210.467 354.525 209.714 355.254 209.923 356.1Z" fill="#2B4261"/>
<path d="M127.995 124.708C133.172 116.045 138.72 107.625 144.279 99.2285C149.568 91.1259 155.335 83.3441 161.547 75.926C169.722 66.0132 179.445 57.4867 190.34 50.6778C191.857 49.7513 193.42 48.8942 194.972 47.9793C195.472 47.6793 196.052 47.5415 196.633 47.5843C197.213 47.6283 197.767 47.8507 198.215 48.2225C199.966 49.3865 201.589 50.7346 203.056 52.2414C207.863 57.1057 212.82 61.7963 218.113 66.1395C226.094 72.8627 235.279 78.0119 245.179 81.3115C247.867 82.2415 250.713 82.6353 253.553 82.4697C256.479 82.2554 259.418 82.2554 262.343 82.4697C268.482 82.9677 273.925 80.4545 279.229 78.0455C289.016 73.6328 297.343 67.1355 305.126 59.7926C308.867 56.3181 312.33 52.4382 316.361 49.2069C317.141 48.439 318.168 47.9723 319.261 47.8889C320.353 47.8067 321.438 48.1136 322.325 48.7552C332.367 54.5322 341.466 61.8079 349.311 70.332C359.885 81.6821 368.698 94.341 376.956 107.394C379.933 112.107 383.002 116.752 386.013 121.442C386.407 122.056 386.708 122.728 387.056 123.365C388.369 125.807 389.856 128.153 391.503 130.383C392.012 131.866 391.503 132.155 390.264 131.391C389.395 130.87 388.943 129.897 388.144 129.283C388.113 129.117 388.033 128.965 387.916 128.843C387.799 128.721 387.649 128.637 387.484 128.6C387.446 128.436 387.365 128.287 387.249 128.167C387.132 128.046 386.986 127.959 386.824 127.916C386.156 126.706 385.277 125.623 384.23 124.72C379.759 119.971 376.03 114.632 372.046 109.49C365.097 100.514 358.078 91.5961 349.924 83.6626C341.751 75.7743 332.711 68.8392 322.974 62.9892C320.194 61.2983 320.136 61.3446 318.156 63.881C310.71 73.5888 301.272 81.5895 290.475 87.3456C282.147 91.9308 272.863 94.5078 263.363 94.8737C256.981 95.0475 250.623 95.2443 244.287 94.0167C233.01 91.7165 222.436 86.7885 213.422 79.6322C207.375 74.9091 201.931 69.4646 197.208 63.4177C195.621 61.4141 195.598 61.472 193.455 62.7344C182.099 69.3858 171.713 77.5706 162.59 87.0561C156.006 94.0966 149.812 101.493 144.036 109.212C140.113 114.285 136.168 119.338 132.199 124.372C131.643 125.277 130.916 126.065 130.057 126.689C128.273 128.125 127.196 130.163 125.598 131.796C125.397 131.982 125.207 132.179 125.03 132.387C124.833 132.584 124.636 132.769 124.428 132.943L124.069 133.117C123.871 133.098 123.686 133.012 123.544 132.873C123.403 132.733 123.314 132.549 123.293 132.352C123.317 132.087 123.396 131.831 123.525 131.599C123.774 131.339 124.002 131.061 124.208 130.766C124.443 130.432 124.641 130.075 124.799 129.7C125.25 129.399 125.123 128.797 125.459 128.449C125.702 128.241 125.957 128.055 125.992 127.708C127.069 127.025 127.184 125.635 127.995 124.708Z" fill="#00BFFF"/>
<path d="M249.119 125.287C247.64 123.901 246.03 122.659 244.312 121.581C239.367 118.002 234.387 114.493 229.43 110.937C227.415 109.49 227.415 109.432 228.735 107.463C229.441 106.421 230.229 105.425 230.912 104.371C231.596 103.317 232.372 103.27 233.472 104.07C239.934 108.755 246.436 113.388 252.975 117.968C254.319 118.917 255.593 120.689 257.608 119.045C257.701 118.993 257.804 118.966 257.909 118.966C258.015 118.966 258.119 118.993 258.21 119.045C260.341 120.794 261.615 118.883 263.052 117.887C269.491 113.346 275.942 108.818 282.312 104.174C283.54 103.27 284.258 103.247 285.08 104.498C289.145 110.602 289.4 108.644 284.014 112.605C278.849 116.416 273.591 120.11 268.414 123.874C266.341 125.368 266.294 125.473 268.31 126.932C273.915 131.02 279.59 135.039 285.207 139.07C288.682 141.571 289.006 140.853 286.215 144.721C283.713 148.196 284.269 148.103 280.772 145.613L262.832 132.746C261.581 131.854 260.307 131.194 258.743 131.796C258.503 131.896 258.245 131.948 257.985 131.948C257.724 131.948 257.467 131.896 257.226 131.796C255.384 131.043 253.995 132.063 252.593 133.047L234.908 145.787C234.572 146.03 234.236 146.308 233.889 146.54C231.931 147.837 231.816 147.883 230.414 145.856C226.94 140.726 226.569 142.081 231.63 138.444C237.097 134.529 242.54 130.58 248.007 126.654C248.28 126.521 248.522 126.328 248.713 126.092C248.906 125.857 249.045 125.581 249.119 125.287Z" fill="#00BFFF"/>
<path d="M259.297 277.598C262.656 283.18 265.018 289.307 268.562 294.785C270.103 297.102 269.825 299.163 267.879 301.433C266.443 303.101 264.775 304.56 263.246 306.158C263.12 306.35 262.948 306.506 262.745 306.615C262.543 306.722 262.317 306.779 262.088 306.779C261.859 306.779 261.633 306.722 261.431 306.615C261.229 306.506 261.056 306.35 260.93 306.158C260.652 305.846 260.339 305.556 260.027 305.267C258.15 303.587 257.791 303.587 255.834 305.359C255.44 305.718 255.081 306.101 254.676 306.517C254.564 306.667 254.418 306.786 254.249 306.866C254.081 306.947 253.894 306.985 253.708 306.978C253.521 306.971 253.339 306.919 253.177 306.827C253.015 306.735 252.877 306.604 252.776 306.448C250.821 304.672 249.019 302.736 247.391 300.657C246.756 299.87 246.389 298.899 246.346 297.888C246.302 296.878 246.583 295.88 247.148 295.04C250.912 289.319 253.332 282.856 256.946 277.054C256.982 276.903 257.052 276.764 257.153 276.647C257.254 276.53 257.381 276.439 257.525 276.382C258.695 275.988 258.834 276.996 259.297 277.598Z" fill="white"/>
</g>
<defs>
<clipPath id="clip0_3112_2">
<rect width="512" height="512" fill="white"/>
</clipPath>
</defs>
</svg>