<svg width="512" height="512" viewBox="0 0 512 512" fill="none" xmlns="http://www.w3.org/2000/svg">
<g clip-path="url(#clip0_3122_1500)">
<path d="M354.306 311.57C354.449 311.162 354.711 310.807 355.058 310.551C357.884 307.725 360.713 304.896 363.542 302.067C363.777 301.761 364.112 301.546 364.489 301.461C364.865 301.375 365.26 301.424 365.605 301.599C368.611 302.697 371.676 303.661 374.714 304.694C381.373 306.957 388.03 309.221 394.684 311.488C400.972 313.616 407.266 315.716 413.55 317.84C418.144 319.404 422.697 320.96 427.271 322.517C427.353 322.544 427.445 322.52 427.606 322.523C427.842 322.041 427.524 321.62 427.387 321.203C425.683 316.216 423.946 311.235 422.259 306.244C419.752 298.831 417.268 291.395 414.778 283.999C412.202 276.381 409.592 268.777 407.023 261.152C406.253 258.863 406.168 259.496 407.748 257.895C410.358 255.285 412.968 252.675 415.582 250.062C415.847 249.665 416.215 249.347 416.646 249.141C417.08 249.343 417.094 249.781 417.22 250.14C419.348 256.428 421.459 262.718 423.607 268.992C423.87 269.762 423.802 270.309 423.169 270.839C422.632 271.287 422.204 271.872 421.66 272.307C420.87 272.933 420.881 273.579 421.192 274.493C422.577 278.382 423.887 282.299 425.211 286.209C426.716 290.663 428.198 295.127 429.696 299.587C432.576 308.078 435.469 316.562 438.374 325.041C438.492 325.272 438.529 325.535 438.479 325.79C438.429 326.044 438.296 326.274 438.101 326.444C435.925 328.619 433.749 330.795 431.574 332.97C431.401 333.165 431.17 333.298 430.914 333.348C430.659 333.398 430.395 333.363 430.161 333.247C422.547 330.65 414.937 328.057 407.331 325.469C404.044 324.357 400.743 323.279 397.455 322.168C391.507 320.146 385.551 318.138 379.623 316.055C378.617 315.692 377.995 315.795 377.341 316.612C376.903 317.16 376.322 317.591 375.87 318.124C375.691 318.379 375.426 318.559 375.124 318.634C374.821 318.709 374.503 318.672 374.225 318.531C372.155 317.789 370.052 317.149 367.989 316.4C364.182 315.022 360.333 313.794 356.495 312.514C355.729 312.294 354.993 311.977 354.306 311.57Z" fill="#5D87FF"/>
<path d="M447.074 346.931C445.107 346.065 443.034 345.497 440.998 344.796C436.196 343.147 431.372 341.553 426.556 339.932C423.115 338.769 419.68 337.578 416.218 336.436C415.832 336.233 415.403 336.122 414.966 336.114C412.004 334.869 408.908 333.963 405.895 332.933C405.712 332.859 405.511 332.846 405.32 332.896C405.13 332.946 404.961 333.056 404.838 333.21C404.184 333.863 403.534 334.513 402.881 335.167C402.757 335.348 402.576 335.483 402.365 335.548C402.155 335.612 401.929 335.603 401.725 335.523C397.278 334.004 392.826 332.489 388.37 330.98C388.26 330.919 388.161 330.84 388.076 330.747C388.127 330.285 388.497 330.073 388.767 329.803C390.819 327.751 392.896 325.722 394.904 323.625C395.161 323.307 395.519 323.085 395.918 322.996C396.318 322.907 396.736 322.956 397.103 323.136C406.541 326.362 416.006 329.546 425.434 332.741C431.26 334.715 437.071 336.723 442.89 338.711C443.256 338.837 443.605 339.063 444.012 338.957C444.241 338.591 444.012 338.273 443.892 337.968C442.111 332.684 440.325 327.402 438.532 322.12C435.826 314.126 433.141 306.131 430.391 298.154L428.15 291.679C428.016 291.405 427.977 291.096 428.037 290.798C428.098 290.499 428.255 290.229 428.485 290.03C430.712 287.851 432.895 285.621 435.101 283.414C435.785 282.73 435.973 282.768 436.315 283.76C437.342 286.838 438.368 289.917 439.394 292.996C439.76 294.08 440.123 295.161 440.557 296.211C440.695 296.46 440.738 296.75 440.68 297.028C440.621 297.306 440.465 297.554 440.239 297.727C439.586 298.312 438.997 298.968 438.375 299.591C438.189 299.744 438.057 299.953 438.001 300.187C437.945 300.421 437.967 300.667 438.063 300.887C439.045 303.887 440.065 306.877 441.204 309.822C441.399 311.18 441.977 312.422 442.404 313.705C444.153 318.957 445.919 324.202 447.7 329.44C449.024 333.35 450.334 337.267 451.712 341.163C452.017 342.029 451.932 342.614 451.231 343.234C450.184 344.171 449.243 345.221 448.248 346.217C447.947 346.586 447.625 346.955 447.074 346.931Z" fill="#5D87FF"/>
<path d="M427.138 346.746C426.187 346.424 425.219 346.14 424.288 345.764C423.539 345.46 422.958 345.521 422.448 346.182C422.208 346.489 421.863 346.719 421.613 347.016C421.059 347.735 420.45 347.865 419.564 347.546C416.643 346.493 413.698 345.525 410.756 344.54C410.28 344.318 409.77 344.178 409.247 344.126C408.922 343.869 408.631 343.626 409.066 343.199C410.992 341.273 412.918 339.347 414.84 337.424C415.268 336.997 415.685 337.099 416.164 337.257C419.202 338.283 422.253 339.241 425.277 340.322C428.66 341.55 432.101 342.61 435.505 343.777C440.236 345.402 444.994 346.958 449.722 348.601C450.919 349.018 452.1 349.493 453.311 349.883C453.585 350.026 453.894 350.08 454.2 350.041C454.289 349.999 454.394 349.997 454.487 350.028C454.582 350.062 454.661 350.127 454.71 350.215C454.814 350.323 454.949 350.407 455.093 350.448C455.241 350.492 455.395 350.495 455.544 350.462C455.743 349.976 455.486 349.576 455.349 349.179C454.043 345.313 452.712 341.451 451.405 337.585C449.458 331.801 447.57 325.999 445.555 320.235C444.515 317.252 443.564 314.235 442.476 311.273C442.312 310.945 442.267 310.57 442.349 310.213C442.432 309.856 442.636 309.538 442.928 309.316C444.71 307.623 446.431 305.861 448.145 304.099C448.565 303.679 448.901 303.487 449.26 304.106C450.231 307.055 451.213 310.007 452.171 312.963C452.441 313.794 453.012 314.625 452.869 315.467C452.725 316.308 451.788 316.794 451.175 317.406C450.957 317.587 450.806 317.836 450.746 318.114C450.686 318.391 450.72 318.68 450.844 318.935C452.571 323.577 453.915 328.356 455.65 332.998C456.433 335.15 457.104 337.326 457.829 339.488C459.256 343.726 460.669 347.971 462.14 352.199C462.306 352.525 462.353 352.903 462.269 353.26C462.188 353.622 461.98 353.939 461.685 354.159C460.761 354.967 459.916 355.866 459.081 356.763C458.922 356.97 458.695 357.115 458.44 357.178C458.186 357.24 457.921 357.218 457.682 357.108C456.795 356.736 455.872 356.455 454.929 356.27C452.496 355.281 449.979 354.495 447.485 353.657C441.539 351.665 435.593 349.666 429.645 347.659C429.187 347.502 428.725 347.369 428.26 347.225C428.051 347.221 427.914 347.023 427.706 347.006C427.47 347.023 427.343 346.801 427.138 346.746Z" fill="#5D87FF"/>
<path d="M316.13 387.409C316.253 387.059 316.478 386.754 316.777 386.533C319.204 384.107 321.633 381.677 324.063 379.247C324.265 378.983 324.553 378.799 324.876 378.726C325.2 378.652 325.539 378.694 325.835 378.844C328.417 379.788 331.05 380.616 333.659 381.503C339.378 383.446 345.096 385.391 350.811 387.338C356.212 389.166 361.618 390.97 367.015 392.794C370.961 394.137 374.871 395.474 378.8 396.811C378.87 396.834 378.949 396.814 379.087 396.817C379.29 396.402 379.017 396.041 378.899 395.683C377.436 391.399 375.944 387.121 374.495 382.834C372.342 376.467 370.209 370.08 368.07 363.728C365.857 357.185 363.615 350.654 361.409 344.105C360.748 342.139 360.674 342.683 362.032 341.308C364.274 339.066 366.515 336.824 368.76 334.579C368.988 334.239 369.304 333.966 369.674 333.789C370.047 333.962 370.059 334.338 370.167 334.647C371.995 340.047 373.808 345.45 375.653 350.839C375.879 351.5 375.82 351.97 375.277 352.425C374.815 352.81 374.448 353.313 373.981 353.686C373.302 354.223 373.311 354.779 373.579 355.563C374.768 358.904 375.894 362.268 377.031 365.626C378.324 369.451 379.596 373.286 380.883 377.117C383.356 384.409 385.841 391.696 388.336 398.979C388.437 399.177 388.469 399.404 388.426 399.622C388.384 399.84 388.27 400.038 388.101 400.184C386.233 402.052 384.364 403.921 382.496 405.79C382.348 405.957 382.149 406.071 381.929 406.114C381.71 406.157 381.483 406.127 381.282 406.027C374.742 403.797 368.206 401.569 361.673 399.346C358.85 398.391 356.015 397.466 353.191 396.511C348.082 394.775 342.967 393.05 337.875 391.261C337.011 390.949 336.476 391.037 335.915 391.74C335.539 392.21 335.04 392.58 334.652 393.038C334.498 393.257 334.27 393.412 334.011 393.476C333.751 393.54 333.477 393.509 333.239 393.388C331.461 392.75 329.654 392.201 327.883 391.557C324.613 390.373 321.307 389.319 318.011 388.22C317.352 388.03 316.72 387.758 316.13 387.409Z" fill="#5D87FF"/>
<path d="M395.807 417.781C394.117 417.037 392.337 416.549 390.588 415.947C386.463 414.53 382.321 413.161 378.184 411.769C375.228 410.77 372.278 409.747 369.305 408.766C368.973 408.591 368.605 408.497 368.23 408.49C365.685 407.42 363.026 406.642 360.438 405.757C360.281 405.694 360.108 405.683 359.945 405.726C359.781 405.769 359.636 405.863 359.53 405.995C358.969 406.557 358.411 407.115 357.849 407.676C357.743 407.832 357.587 407.947 357.407 408.003C357.226 408.058 357.032 408.051 356.856 407.982C353.037 406.677 349.213 405.376 345.386 404.08C345.292 404.027 345.207 403.96 345.133 403.88C345.177 403.483 345.495 403.301 345.727 403.069C347.49 401.306 349.273 399.564 350.998 397.763C351.219 397.489 351.526 397.299 351.869 397.223C352.212 397.146 352.571 397.188 352.887 397.343C360.993 400.113 369.123 402.849 377.22 405.593C382.224 407.288 387.215 409.013 392.213 410.72C392.528 410.829 392.827 411.022 393.177 410.931C393.374 410.617 393.177 410.344 393.074 410.082C391.544 405.544 390.01 401.007 388.47 396.47C386.146 389.604 383.84 382.738 381.477 375.886L379.553 370.324C379.438 370.089 379.404 369.823 379.456 369.567C379.508 369.311 379.643 369.079 379.841 368.908C381.754 367.036 383.628 365.121 385.523 363.226C386.111 362.638 386.272 362.67 386.566 363.523C387.448 366.167 388.329 368.811 389.21 371.455C389.525 372.387 389.836 373.315 390.209 374.217C390.328 374.431 390.365 374.68 390.315 374.918C390.265 375.157 390.13 375.37 389.936 375.519C389.375 376.021 388.87 376.585 388.335 377.12C388.175 377.251 388.062 377.431 388.014 377.632C387.966 377.833 387.985 378.044 388.068 378.233C388.911 380.81 389.786 383.378 390.765 385.908C390.932 387.074 391.429 388.141 391.796 389.242C393.298 393.753 394.815 398.258 396.344 402.758C397.481 406.116 398.606 409.48 399.79 412.826C400.053 413.57 399.979 414.073 399.377 414.605C398.478 415.41 397.67 416.312 396.815 417.167C396.556 417.484 396.28 417.801 395.807 417.781Z" fill="#5D87FF"/>
<path d="M378.685 417.621C377.868 417.345 377.037 417.101 376.237 416.778C375.594 416.516 375.094 416.569 374.657 417.136C374.451 417.401 374.154 417.598 373.94 417.853C373.464 418.47 372.941 418.582 372.18 418.309C369.671 417.404 367.141 416.572 364.614 415.726C364.206 415.536 363.768 415.416 363.319 415.371C363.04 415.15 362.79 414.942 363.163 414.574C364.817 412.92 366.471 411.266 368.122 409.615C368.49 409.248 368.848 409.336 369.259 409.471C371.868 410.352 374.489 411.175 377.086 412.103C379.992 413.158 382.948 414.069 385.871 415.071C389.935 416.467 394.022 417.803 398.083 419.214C399.111 419.573 400.125 419.981 401.165 420.316C401.4 420.439 401.666 420.485 401.929 420.451C402.005 420.416 402.095 420.414 402.175 420.44C402.257 420.469 402.324 420.525 402.366 420.601C402.456 420.694 402.572 420.765 402.696 420.8C402.822 420.838 402.955 420.841 403.083 420.813C403.254 420.395 403.033 420.052 402.916 419.711C401.793 416.391 400.65 413.074 399.528 409.753C397.856 404.785 396.234 399.802 394.503 394.851C393.61 392.289 392.793 389.698 391.859 387.153C391.718 386.872 391.679 386.55 391.75 386.243C391.821 385.936 391.997 385.664 392.247 385.473C393.778 384.018 395.256 382.505 396.728 380.992C397.089 380.631 397.377 380.466 397.685 380.998C398.52 383.531 399.363 386.066 400.186 388.605C400.418 389.319 400.908 390.033 400.785 390.755C400.662 391.478 399.857 391.895 399.331 392.421C399.143 392.577 399.013 392.791 398.962 393.029C398.91 393.267 398.939 393.515 399.046 393.735C400.529 397.722 401.684 401.826 403.174 405.813C403.847 407.661 404.423 409.53 405.046 411.387C406.271 415.027 407.484 418.674 408.748 422.305C408.891 422.585 408.931 422.909 408.859 423.216C408.79 423.527 408.611 423.799 408.357 423.989C407.564 424.682 406.838 425.455 406.121 426.224C405.984 426.403 405.789 426.527 405.571 426.581C405.352 426.635 405.125 426.616 404.919 426.521C404.158 426.202 403.365 425.96 402.554 425.801C400.465 424.952 398.303 424.277 396.161 423.557C391.054 421.846 385.947 420.129 380.838 418.406C380.445 418.27 380.048 418.156 379.649 418.033C379.469 418.03 379.352 417.859 379.173 417.844C378.97 417.859 378.861 417.668 378.685 417.621Z" fill="#5D87FF"/>
<path d="M157.694 311.57C157.551 311.162 157.289 310.807 156.942 310.551C154.116 307.725 151.287 304.896 148.458 302.067C148.223 301.761 147.888 301.546 147.511 301.461C147.135 301.375 146.74 301.424 146.395 301.599C143.389 302.697 140.324 303.661 137.286 304.694C130.627 306.957 123.97 309.221 117.316 311.488C111.028 313.616 104.734 315.716 98.4501 317.84C93.856 319.404 89.303 320.96 84.7295 322.517C84.6474 322.544 84.555 322.52 84.3942 322.523C84.1582 322.041 84.4763 321.62 84.6132 321.203C86.3167 316.216 88.0544 311.235 89.7409 306.244C92.2483 298.831 94.7317 291.395 97.2221 283.999C99.7979 276.381 102.408 268.777 104.977 261.152C105.747 258.863 105.832 259.496 104.252 257.895C101.642 255.285 99.0316 252.675 96.4182 250.062C96.1527 249.665 95.785 249.347 95.3543 249.141C94.9199 249.343 94.9062 249.781 94.7797 250.14C92.6519 256.428 90.5413 262.718 88.3931 268.992C88.1297 269.762 88.1981 270.309 88.831 270.839C89.368 271.287 89.7956 271.872 90.3395 272.307C91.1297 272.933 91.1194 273.579 90.8081 274.493C89.4227 278.382 88.1126 282.299 86.7888 286.209C85.2836 290.663 83.8024 295.127 82.3042 299.587C79.4239 308.078 76.531 316.562 73.6257 325.041C73.5084 325.272 73.4714 325.535 73.521 325.79C73.5706 326.044 73.7037 326.274 73.8994 326.444C76.075 328.619 78.2506 330.795 80.4262 332.97C80.5986 333.165 80.8302 333.298 81.0857 333.348C81.3409 333.398 81.6053 333.363 81.8389 333.247C89.4532 330.65 97.0633 328.057 104.669 325.469C107.956 324.357 111.257 323.279 114.545 322.168C120.493 320.146 126.449 318.138 132.377 316.055C133.383 315.692 134.005 315.795 134.659 316.612C135.097 317.16 135.678 317.591 136.13 318.124C136.309 318.379 136.574 318.559 136.876 318.634C137.179 318.709 137.497 318.672 137.775 318.531C139.845 317.789 141.948 317.149 144.011 316.4C147.818 315.022 151.667 313.794 155.505 312.514C156.271 312.294 157.007 311.977 157.694 311.57Z" fill="#5D87FF"/>
<path d="M64.9257 346.931C66.8933 346.065 68.9662 345.497 71.0016 344.796C75.8043 343.147 80.6276 341.553 85.444 339.932C88.8853 338.769 92.3197 337.578 95.7815 336.436C96.1681 336.233 96.5967 336.122 97.0335 336.114C99.9959 334.869 103.092 333.963 106.105 332.933C106.288 332.859 106.489 332.846 106.68 332.896C106.87 332.946 107.039 333.056 107.162 333.21C107.816 333.863 108.466 334.513 109.119 335.167C109.243 335.348 109.424 335.483 109.635 335.548C109.845 335.612 110.071 335.603 110.275 335.523C114.722 334.004 119.174 332.489 123.63 330.98C123.74 330.919 123.839 330.84 123.924 330.747C123.873 330.285 123.503 330.073 123.233 329.803C121.181 327.751 119.104 325.722 117.096 323.625C116.839 323.307 116.481 323.085 116.082 322.996C115.682 322.907 115.264 322.956 114.897 323.136C105.459 326.362 95.9936 329.546 86.566 332.741C80.7405 334.715 74.9286 336.723 69.1099 338.711C68.7439 338.837 68.395 339.063 67.9879 338.957C67.7587 338.591 67.9879 338.273 68.1076 337.968C69.8888 332.684 71.6755 327.402 73.4679 322.12C76.1738 314.126 78.8591 306.131 81.6094 298.154L83.8499 291.679C83.9837 291.405 84.0234 291.096 83.9628 290.798C83.9023 290.499 83.7446 290.229 83.5147 290.03C81.2878 287.851 79.1054 285.621 76.899 283.414C76.2148 282.73 76.0267 282.768 75.6846 283.76C74.6584 286.838 73.6321 289.917 72.6059 292.996C72.2399 294.08 71.8773 295.161 71.4429 296.211C71.305 296.46 71.2616 296.75 71.3201 297.028C71.3786 297.306 71.5349 297.554 71.761 297.727C72.4144 298.312 73.0027 298.968 73.6253 299.591C73.8114 299.744 73.9427 299.953 73.9988 300.187C74.0549 300.421 74.0331 300.667 73.9366 300.887C72.9548 303.887 71.9354 306.877 70.7963 309.822C70.6014 311.18 70.0232 312.422 69.5956 313.705C67.8466 318.957 66.0812 324.202 64.3003 329.44C62.9765 333.35 61.6663 337.267 60.2878 341.163C59.9827 342.029 60.0682 342.614 60.7694 343.234C61.8162 344.171 62.7569 345.221 63.7523 346.217C64.0533 346.586 64.3749 346.955 64.9257 346.931Z" fill="#5D87FF"/>
<path d="M84.8623 346.746C85.8132 346.424 86.7813 346.14 87.7117 345.764C88.4609 345.46 89.0424 345.521 89.5521 346.182C89.7916 346.489 90.1371 346.719 90.3868 347.016C90.9409 347.735 91.5498 347.865 92.4358 347.546C95.3571 346.493 98.3024 345.525 101.244 344.54C101.72 344.318 102.23 344.178 102.753 344.126C103.078 343.869 103.369 343.626 102.934 343.199C101.008 341.273 99.0823 339.347 97.1599 337.424C96.7323 336.997 96.3149 337.099 95.836 337.257C92.7984 338.283 89.7471 339.241 86.7232 340.322C83.34 341.55 79.8987 342.61 76.4951 343.777C71.7642 345.402 67.0059 346.958 62.2778 348.601C61.0805 349.018 59.9003 349.493 58.6894 349.883C58.4151 350.026 58.1062 350.08 57.8 350.041C57.7107 349.999 57.606 349.997 57.5133 350.028C57.4175 350.062 57.3392 350.127 57.2903 350.215C57.1863 350.323 57.0505 350.407 56.9068 350.448C56.7594 350.492 56.6055 350.495 56.4556 350.462C56.2572 349.976 56.5138 349.576 56.6506 349.179C57.9574 345.313 59.288 341.451 60.5954 337.585C62.5418 331.801 64.4301 325.999 66.4449 320.235C67.4848 317.252 68.4358 314.235 69.5236 311.273C69.6881 310.945 69.733 310.57 69.6509 310.213C69.5684 309.856 69.3635 309.538 69.0721 309.316C67.2899 307.623 65.5692 305.861 63.8554 304.099C63.4347 303.679 63.0994 303.487 62.7403 304.106C61.7688 307.055 60.787 310.007 59.8292 312.963C59.5589 313.794 58.9877 314.625 59.1314 315.467C59.275 316.308 60.2123 316.794 60.8246 317.406C61.0429 317.587 61.1944 317.836 61.2543 318.114C61.3145 318.391 61.2803 318.68 61.1565 318.935C59.429 323.577 58.0846 328.356 56.3503 332.998C55.5669 335.15 54.8958 337.326 54.1706 339.488C52.7441 343.726 51.3314 347.971 49.8604 352.199C49.6939 352.525 49.647 352.903 49.7311 353.26C49.8119 353.622 50.0198 353.939 50.3154 354.159C51.239 354.967 52.0839 355.866 52.9186 356.763C53.078 356.97 53.3055 357.115 53.5597 357.178C53.8138 357.24 54.0789 357.218 54.3177 357.108C55.2047 356.736 56.1276 356.455 57.0714 356.27C59.5035 355.281 62.0212 354.495 64.5149 353.657C70.4609 351.665 76.4072 349.666 82.3548 347.659C82.8132 347.502 83.275 347.369 83.7402 347.225C83.9489 347.221 84.0857 347.023 84.2944 347.006C84.5304 347.023 84.657 346.801 84.8623 346.746Z" fill="#5D87FF"/>
<path d="M195.87 387.409C195.747 387.059 195.522 386.754 195.223 386.533C192.796 384.107 190.367 381.677 187.937 379.247C187.735 378.983 187.447 378.799 187.124 378.726C186.8 378.652 186.461 378.694 186.165 378.844C183.583 379.788 180.95 380.616 178.341 381.503C172.622 383.446 166.904 385.391 161.189 387.338C155.788 389.166 150.382 390.97 144.985 392.794C141.039 394.137 137.129 395.474 133.2 396.811C133.13 396.834 133.051 396.814 132.913 396.817C132.71 396.402 132.983 396.041 133.101 395.683C134.564 391.399 136.056 387.121 137.505 382.834C139.658 376.467 141.791 370.08 143.93 363.728C146.143 357.185 148.385 350.654 150.591 344.105C151.252 342.139 151.326 342.683 149.968 341.308C147.726 339.066 145.485 336.824 143.24 334.579C143.012 334.239 142.696 333.966 142.326 333.789C141.953 333.962 141.941 334.338 141.833 334.647C140.005 340.047 138.192 345.45 136.347 350.839C136.121 351.5 136.18 351.97 136.723 352.425C137.185 352.81 137.552 353.313 138.019 353.686C138.698 354.223 138.689 354.779 138.421 355.563C137.232 358.904 136.106 362.268 134.969 365.626C133.676 369.451 132.404 373.286 131.117 377.117C128.644 384.409 126.159 391.696 123.664 398.979C123.563 399.177 123.531 399.404 123.574 399.622C123.616 399.84 123.73 400.038 123.899 400.184C125.767 402.052 127.636 403.921 129.504 405.79C129.652 405.957 129.851 406.071 130.071 406.114C130.29 406.157 130.517 406.127 130.718 406.027C137.258 403.797 143.794 401.569 150.327 399.346C153.15 398.391 155.985 397.466 158.809 396.511C163.918 394.775 169.033 393.05 174.125 391.261C174.989 390.949 175.524 391.037 176.085 391.74C176.461 392.21 176.96 392.58 177.348 393.038C177.502 393.257 177.73 393.412 177.989 393.476C178.249 393.54 178.523 393.509 178.761 393.388C180.539 392.75 182.346 392.201 184.117 391.557C187.387 390.373 190.693 389.319 193.989 388.22C194.648 388.03 195.28 387.758 195.87 387.409Z" fill="#5D87FF"/>
<path d="M116.193 417.781C117.883 417.037 119.663 416.549 121.412 415.947C125.537 414.53 129.679 413.161 133.816 411.769C136.772 410.77 139.722 409.747 142.695 408.766C143.027 408.591 143.395 408.497 143.77 408.49C146.315 407.42 148.974 406.642 151.562 405.757C151.719 405.694 151.892 405.683 152.055 405.726C152.219 405.769 152.364 405.863 152.47 405.995C153.031 406.557 153.589 407.115 154.151 407.676C154.257 407.832 154.413 407.947 154.593 408.003C154.774 408.058 154.968 408.051 155.144 407.982C158.963 406.677 162.787 405.376 166.614 404.08C166.708 404.027 166.793 403.96 166.867 403.88C166.823 403.483 166.505 403.301 166.273 403.069C164.51 401.306 162.727 399.564 161.002 397.763C160.781 397.489 160.474 397.299 160.131 397.223C159.788 397.146 159.429 397.188 159.113 397.343C151.007 400.113 142.877 402.849 134.78 405.593C129.776 407.288 124.785 409.013 119.787 410.72C119.472 410.829 119.173 411.022 118.823 410.931C118.626 410.617 118.823 410.344 118.926 410.082C120.456 405.544 121.99 401.007 123.53 396.47C125.854 389.604 128.16 382.738 130.523 375.886L132.447 370.324C132.562 370.089 132.596 369.823 132.544 369.567C132.492 369.311 132.357 369.079 132.159 368.908C130.246 367.036 128.372 365.121 126.477 363.226C125.889 362.638 125.728 362.67 125.434 363.523C124.552 366.167 123.671 368.811 122.79 371.455C122.475 372.387 122.164 373.315 121.791 374.217C121.672 374.431 121.635 374.68 121.685 374.918C121.735 375.157 121.87 375.37 122.064 375.519C122.625 376.021 123.13 376.585 123.665 377.12C123.825 377.251 123.938 377.431 123.986 377.632C124.034 377.833 124.015 378.044 123.932 378.233C123.089 380.81 122.214 383.378 121.235 385.908C121.068 387.074 120.571 388.141 120.204 389.242C118.702 393.753 117.185 398.258 115.656 402.758C114.519 406.116 113.394 409.48 112.21 412.826C111.947 413.57 112.021 414.073 112.623 414.605C113.522 415.41 114.33 416.312 115.185 417.167C115.444 417.484 115.72 417.801 116.193 417.781Z" fill="#5D87FF"/>
<path d="M133.315 417.621C134.132 417.345 134.963 417.101 135.763 416.778C136.406 416.516 136.906 416.569 137.343 417.136C137.549 417.401 137.846 417.598 138.06 417.853C138.536 418.47 139.059 418.582 139.82 418.309C142.329 417.404 144.859 416.572 147.386 415.726C147.794 415.536 148.232 415.416 148.681 415.371C148.96 415.15 149.21 414.942 148.837 414.574C147.183 412.92 145.529 411.266 143.878 409.615C143.51 409.248 143.152 409.336 142.741 409.471C140.132 410.352 137.511 411.175 134.914 412.103C132.008 413.158 129.052 414.069 126.129 415.071C122.065 416.467 117.978 417.803 113.917 419.214C112.889 419.573 111.875 419.981 110.835 420.316C110.6 420.439 110.334 420.485 110.071 420.451C109.995 420.416 109.905 420.414 109.825 420.44C109.743 420.469 109.676 420.525 109.634 420.601C109.544 420.694 109.428 420.765 109.304 420.8C109.178 420.838 109.045 420.841 108.917 420.813C108.746 420.395 108.967 420.052 109.084 419.711C110.207 416.391 111.35 413.074 112.472 409.753C114.144 404.785 115.766 399.802 117.497 394.851C118.39 392.289 119.207 389.698 120.141 387.153C120.282 386.872 120.321 386.55 120.25 386.243C120.179 385.936 120.003 385.664 119.753 385.473C118.222 384.018 116.744 382.505 115.272 380.992C114.911 380.631 114.623 380.466 114.315 380.998C113.48 383.531 112.637 386.066 111.814 388.605C111.582 389.319 111.092 390.033 111.215 390.755C111.338 391.478 112.143 391.895 112.669 392.421C112.857 392.577 112.987 392.791 113.038 393.029C113.09 393.267 113.061 393.515 112.954 393.735C111.471 397.722 110.316 401.826 108.826 405.813C108.153 407.661 107.577 409.53 106.954 411.387C105.729 415.027 104.516 418.674 103.252 422.305C103.109 422.585 103.069 422.909 103.141 423.216C103.21 423.527 103.389 423.799 103.643 423.989C104.436 424.682 105.162 425.455 105.879 426.224C106.016 426.403 106.211 426.527 106.429 426.581C106.648 426.635 106.875 426.616 107.081 426.521C107.842 426.202 108.635 425.96 109.446 425.801C111.535 424.952 113.697 424.277 115.839 423.557C120.946 421.846 126.053 420.129 131.162 418.406C131.555 418.27 131.952 418.156 132.351 418.033C132.531 418.03 132.648 417.859 132.827 417.844C133.03 417.859 133.139 417.668 133.315 417.621Z" fill="#5D87FF"/>
<path d="M217.068 443.034C212.194 432.856 207.034 422.827 202.806 412.363C202.6 411.841 202.414 411.307 202.247 410.76C201.401 408.026 201.489 407.765 204.361 407.032C210.951 405.441 217.677 404.546 224.391 403.627C230.322 402.807 236.278 402.21 242.221 401.527C244.077 401.328 245.804 400.479 247.094 399.129C248.384 397.781 249.155 396.019 249.271 394.157C249.668 389.422 249.246 384.656 248.028 380.065C247.2 377.139 246.37 374.206 245.541 371.266C244.93 369.226 243.844 367.36 242.37 365.823C240.274 363.46 238.539 360.801 237.223 357.932C236.191 355.595 236.701 352.812 237.223 350.264C237.471 349.108 238.702 349.021 239.709 348.847C245.036 347.777 250.443 347.157 255.873 346.996C264.104 346.548 272.348 346.126 280.604 346.287C281.805 346.105 283.033 346.265 284.147 346.747C284.132 347.052 284.033 347.345 283.859 347.596C283.686 347.846 283.445 348.043 283.165 348.164C274.698 353.259 270.47 361.038 268.966 370.533C268.518 373.317 268.033 376.1 267.561 378.872C266.429 385.483 267.561 391.895 268.966 398.32C269.401 400.296 270.682 400.334 272.236 400.371C280.703 400.595 289.183 400.371 297.65 401.042C302.375 401.39 307.125 401.502 311.862 401.75C312.62 401.75 313.466 401.564 314.274 402.459C312.881 404.944 311.34 407.169 308.057 407.889C304.778 408.682 301.457 409.289 298.11 409.704C293.833 410.182 289.699 411.53 285.963 413.668C283.7 414.911 281.462 416.253 279.186 417.508C277.096 418.863 275.384 420.728 274.213 422.926C273.667 423.928 273.499 425.092 273.74 426.207C276.414 445.706 277.197 465.328 277.694 484.976C277.831 490.382 278.415 495.788 278.677 501.193C279.406 518.682 278.991 536.201 277.433 553.637C276.416 563.902 273.346 573.858 268.406 582.915C266.121 587.452 263.52 591.826 260.623 596.001C254.841 604.079 248.189 611.349 238.976 615.5C230.384 619.377 221.357 621.862 211.771 621.577C210.117 621.577 208.041 621.838 207.407 619.824C206.773 617.811 208.762 617.053 210.155 616.183C211.547 615.313 212.828 614.493 214.183 613.698C223.173 608.416 227.574 600.276 228.843 590.21C229.388 586.636 229.48 583.007 229.116 579.411C228.218 573.35 225.539 567.692 221.42 563.156C220.674 562.261 219.828 561.652 220.823 560.335C226.405 553.003 230.223 544.689 234.089 536.412C238.516 527.017 241.027 517.013 243.328 506.972C245.271 498.334 246.686 489.585 247.568 480.775C248.636 468.792 248.822 456.746 248.127 444.736C247.878 438.436 247.617 432.16 247.157 425.872C246.996 423.56 245.914 423.075 243.9 423.225C236.949 423.734 230.571 426.12 224.317 428.929C222.99 429.441 221.872 430.379 221.137 431.596C220.404 432.813 220.097 434.24 220.263 435.652C220.425 439.653 220.338 443.68 220.263 448.514C218.336 446.389 218.162 444.413 217.068 443.034Z" fill="#5D87FF"/>
<path d="M309.401 353.942C308.431 351.395 307.548 348.971 306.603 346.585C306.046 345.104 305.764 343.533 305.77 341.95C305.77 338.893 307.486 337.178 310.569 336.979C313.169 336.791 315.779 337.192 318.204 338.147C319.037 338.47 319.87 338.831 320.69 339.104C322.307 339.626 322.568 339.39 322.729 337.6C322.848 336.646 322.729 335.677 322.387 334.778C322.046 333.878 321.489 333.077 320.765 332.443C318.504 330.39 316.511 328.06 314.834 325.509C313.64 323.845 313.049 321.824 313.155 319.78C313.189 319.156 313.372 318.551 313.69 318.014C314.008 317.477 314.452 317.026 314.983 316.698C316.3 315.933 317.807 315.556 319.329 315.608C320.851 315.661 322.327 316.142 323.587 316.996C328.671 320.754 334.01 324.154 339.565 327.174C340.278 327.507 340.876 328.046 341.282 328.721C341.688 329.396 341.882 330.178 341.84 330.964C341.964 336.345 340.099 341.155 337.637 345.765C333.522 353.507 327.84 360.081 321.822 366.357C314.71 373.813 307.138 380.686 299.329 387.359C297.977 388.556 296.697 389.835 295.5 391.187C295.153 391.632 294.668 391.947 294.121 392.088C293.574 392.227 292.997 392.181 292.478 391.957C287.579 390.242 282.531 385.334 283.34 378.486C283.367 377.219 283.867 376.007 284.741 375.087C285.614 374.168 286.8 373.607 288.064 373.515C289.86 373.272 291.685 373.361 293.448 373.776C297.079 374.596 298.981 372.695 298.235 368.979C297.812 366.879 297.29 364.804 296.805 362.766C296.697 362.448 296.606 362.123 296.532 361.796C295.885 356.428 296.706 353.582 303.196 353.731C305.223 353.781 307.212 354.315 309.401 353.942Z" fill="#5D87FF"/>
<path d="M206.15 353.769C208.574 353.769 210.924 353.707 213.274 353.769C218.111 353.943 219.964 356.379 218.907 361.113C218.409 363.313 217.788 365.475 217.328 367.675C217.094 368.663 217.002 369.679 217.054 370.695C217.023 371.233 217.126 371.772 217.353 372.262C217.58 372.752 217.926 373.177 218.358 373.501C218.79 373.824 219.296 374.035 219.831 374.116C220.364 374.197 220.91 374.145 221.418 373.963C223.173 373.522 224.984 373.35 226.79 373.454C228.167 373.471 229.487 374.013 230.478 374.969C231.468 375.925 232.058 377.223 232.124 378.599C232.77 384.216 228.655 390.268 222.401 391.995C221.913 392.134 221.393 392.121 220.914 391.955C220.434 391.791 220.016 391.484 219.715 391.076C210.75 382.376 200.965 374.435 192.448 365.227C186.02 358.267 179.828 351.06 176.011 342.211C174.448 338.816 173.601 335.135 173.524 331.4C173.436 330.505 173.627 329.604 174.072 328.822C174.517 328.041 175.195 327.417 176.011 327.038C181.491 324.114 186.733 320.764 191.69 317.021C194.45 314.971 197.235 315.381 200.02 316.512C202.171 317.382 202.83 319.892 201.898 322.725C200.8 325.456 199.148 327.931 197.048 329.995C196.153 331.002 195.146 331.934 194.189 332.891C193.373 333.681 192.802 334.692 192.547 335.799C192.336 336.327 192.26 336.9 192.33 337.465C192.399 338.031 192.612 338.569 192.945 339.03C193.816 339.9 194.835 339.03 195.755 338.695C198.452 337.505 201.377 336.92 204.322 336.98C208.264 337.178 210.054 339.216 209.569 343.193C209.098 345.978 208.261 348.69 207.082 351.259C206.734 352.079 205.926 352.862 206.15 353.769Z" fill="#5D87FF"/>
<path fill-rule="evenodd" clip-rule="evenodd" d="M257.102 172.739C260.835 172.674 264.565 172.923 268.256 173.483C270.834 173.855 273.412 173.868 275.978 174.041C290.678 174.831 305.331 176.361 319.878 178.627C332.433 180.709 344.828 183.436 356.627 188.431C359.657 189.635 362.25 191.731 364.064 194.441C368.377 200.948 370.062 208.236 370.409 215.858C370.703 221.369 370.487 226.896 369.765 232.368C369.373 236.509 368.384 240.571 366.827 244.428C366.175 245.868 365.645 247.36 365.241 248.89C364.361 252.199 365.241 254.306 368.216 255.954C370.484 257.194 372.901 258.148 375.206 259.313C381.713 262.586 381.861 262.969 378.49 269.303C372.541 280.569 365.724 291.265 357.073 300.722C352.711 305.456 347.951 309.795 341.395 311.406C338.681 312.075 338.68 312.112 336.995 309.795C335.193 307.34 333.019 305.182 330.55 303.399C326.261 300.251 322.159 296.929 319.816 291.959C319.135 290.509 318.069 290.832 316.966 291.253C303.109 296.471 292.747 305.246 287.814 319.673C286.658 323.493 285.695 327.368 284.927 331.286C283.254 330.84 282.634 329.663 281.717 328.882C278.383 325.982 275.396 325.66 271.541 327.767C270.333 328.405 269.09 328.98 267.822 329.489C266.567 330.011 265.19 330.171 263.848 329.951C262.504 329.733 261.25 329.144 260.225 328.25C257.845 326.478 257.746 326.403 255.713 328.101C254.616 329.085 253.253 329.721 251.794 329.928C250.335 330.135 248.848 329.904 247.521 329.266C246.38 328.782 245.265 328.249 244.162 327.667C240.444 325.672 237.506 325.994 234.246 328.721C233.317 329.514 232.722 330.703 231.445 331.075C231.331 331.096 231.214 331.096 231.099 331.075C230.219 330.344 230.491 329.229 230.305 328.274C228.446 318.297 224.48 309.374 217.056 302.247C211.845 297.41 205.711 293.674 199.023 291.266C197.473 290.671 196.543 290.869 195.75 292.431C193.642 296.439 190.555 299.848 186.776 302.346C183.483 304.526 180.631 307.31 178.373 310.551C178.067 311.087 177.578 311.494 176.994 311.697C176.41 311.901 175.773 311.885 175.2 311.654C171.47 310.738 167.993 308.996 165.024 306.56C161.107 303.345 157.565 299.699 154.465 295.69C153.226 294.203 153.3 293.955 155.134 292.938C162.446 288.93 169.409 284.311 175.944 279.132C181.601 274.663 186.932 269.795 191.896 264.568C193.135 263.329 193.977 263.094 195.613 264.135C208.007 272.129 220.489 271.186 232.796 263.824C237.787 260.731 242.042 256.586 245.265 251.678C243.554 249.993 241.41 250.129 239.539 249.695C230.898 247.604 222.54 244.475 214.651 240.375C212.309 239.136 212.271 239.135 213.659 236.904C224.727 219.379 232.61 200.366 238.684 180.609C239.168 179.228 239.545 177.81 239.812 176.371C239.815 176.009 239.893 175.653 240.042 175.323C240.192 174.995 240.408 174.7 240.678 174.46C240.947 174.22 241.264 174.038 241.608 173.928C241.952 173.816 242.315 173.779 242.675 173.817C247.496 173.545 252.293 172.863 257.102 172.739ZM259.395 270.678C258.899 270.033 258.75 268.955 257.498 269.376C257.345 269.437 257.208 269.535 257.101 269.66C256.993 269.785 256.916 269.935 256.878 270.096C253.011 276.305 250.421 283.221 246.393 289.344C245.788 290.242 245.488 291.311 245.535 292.392C245.581 293.473 245.974 294.512 246.653 295.355C248.396 297.579 250.324 299.652 252.416 301.552C252.524 301.719 252.671 301.859 252.845 301.957C253.018 302.056 253.214 302.112 253.413 302.119C253.612 302.127 253.812 302.086 253.991 301.999C254.172 301.914 254.329 301.786 254.449 301.626C254.883 301.18 255.267 300.771 255.689 300.387C257.783 298.491 258.167 298.49 260.175 300.287C260.509 300.597 260.844 300.908 261.142 301.242C261.277 301.447 261.462 301.614 261.679 301.73C261.894 301.846 262.136 301.906 262.381 301.906C262.626 301.906 262.868 301.846 263.084 301.73C263.301 301.614 263.486 301.447 263.621 301.242C265.257 299.532 267.041 297.97 268.578 296.186C270.66 293.756 270.958 291.549 269.31 289.07C265.517 283.208 262.989 276.652 259.395 270.678ZM328.454 222.676C328.193 222.846 327.962 223.06 327.773 223.308C322.08 227.705 316.155 231.792 310.023 235.553C303.943 239.183 297.599 242.357 291.048 245.047C284.467 247.798 277.501 249.298 270.511 251.244C272.111 253.994 274.145 256.469 276.534 258.569C285.012 266.787 295.027 270.864 306.863 269.266C318.328 267.704 326.52 261.457 330.722 250.463C333.808 242.382 333.276 234.202 331.069 226.021C330.301 222.849 330.3 222.849 328.454 222.676Z" fill="#5D87FF"/>
<path d="M183.044 238.43C182.994 243.566 184.096 248.647 186.266 253.303C186.886 254.716 187.035 255.67 185.894 256.897C175.483 268.176 163.758 277.694 149.678 284.077C147.001 285.317 146.952 285.317 145.39 282.912C141.765 277.344 138.454 271.575 135.475 265.635C135.268 265.339 135.125 265.001 135.058 264.647C134.991 264.291 135 263.926 135.084 263.575C135.168 263.223 135.326 262.893 135.548 262.607C135.768 262.322 136.048 262.086 136.367 261.917C139.141 259.991 142.107 258.358 145.216 257.046C146.134 256.599 147.088 256.24 147.943 255.719C149.129 255.152 150.061 254.164 150.558 252.947C151.055 251.731 151.081 250.373 150.633 249.138C150.355 247.822 149.94 246.538 149.393 245.308C147.125 240.784 146.481 235.889 145.923 230.968C144.872 223.137 145.055 215.192 146.468 207.419C147.115 204.329 148.101 201.32 149.406 198.446C150.505 195.917 152.115 193.645 154.134 191.77C156.154 189.895 158.541 188.458 161.143 187.551C170.626 183.995 180.412 181.311 190.381 179.532C200.557 177.623 210.819 176.359 221.106 175.368C225.085 174.983 225.06 175.045 224.217 179.086C220.768 195.964 214.873 212.249 206.717 227.423C205.923 228.911 204.957 230.299 204.126 231.774C203.296 233.249 202.242 233.459 200.842 232.431C197.21 229.766 193.492 227.238 189.898 224.536C185.783 221.425 185.77 221.363 184.63 226.246C183.582 230.222 183.047 234.317 183.044 238.43Z" fill="#5D87FF"/>
<path fill-rule="evenodd" clip-rule="evenodd" d="M309.814 11.1549C310.681 8.57748 310.755 8.55223 313.358 9.18416C326.086 12.2827 337.167 18.5546 347.182 26.8463C359.576 37.0714 369.281 49.5649 378.452 62.5416C386.632 74.1177 394.565 85.9047 402.534 97.5924C408.791 106.962 415.84 115.779 423.605 123.943C432.714 133.288 442.89 141.146 455.668 145.087C466.271 148.293 477.532 148.647 488.315 146.116C491.711 145.372 495.058 144.417 498.392 143.451C498.902 143.233 499.47 143.183 500.01 143.308C500.551 143.432 501.039 143.726 501.403 144.145C501.747 144.518 501.955 144.997 501.993 145.503C502.032 146.008 501.898 146.513 501.614 146.934C499.442 151.78 496.082 156 491.847 159.205C490.372 160.444 488.773 161.485 487.236 162.613C477.916 169.504 468.459 176.246 460.217 184.414C450.193 194.524 442.483 206.69 437.622 220.072C436.47 223.121 435.367 226.183 434.177 229.219C433.747 230.377 433.202 231.49 432.553 232.541C430.706 235.428 428.612 235.887 425.687 234.078C422.883 232.169 420.434 229.787 418.448 227.038C413.491 220.841 408.645 214.433 403.823 208.062C401.989 205.67 402.064 205.584 404.964 204.344C406.922 203.514 408.893 202.67 410.851 201.865C411.037 201.79 411.173 201.568 411.644 201.134C409.387 198.549 406.852 196.221 404.084 194.193C395.879 187.389 386.546 182.381 376.817 178.081C359.974 170.767 342.307 165.522 324.203 162.463C311.934 160.211 299.549 158.641 287.107 157.754C281.827 157.407 276.547 157.395 271.292 157.023C266.037 156.651 260.955 156.515 255.786 156.614C240.395 156.755 225.024 157.748 209.742 159.588C190.975 161.849 172.483 166.002 154.551 171.983C141.624 176.42 129.204 181.898 117.876 189.694C113.793 192.496 109.931 195.609 106.324 199.003C105.606 199.659 104.639 200.242 104.602 201.481C106.841 202.71 109.18 203.751 111.592 204.592C113.699 205.485 113.835 205.77 112.559 207.48C106.845 215.14 101.193 222.861 94.8722 230.062C93.5585 231.608 92.0155 232.946 90.299 234.028C87.2873 235.837 85.3408 235.429 83.4074 232.529C81.474 229.629 80.6439 226.331 79.5285 223.208C74.075 207.802 65.8944 194.093 54.0705 182.728C52.1545 180.83 50.1303 179.041 48.0099 177.375C41.094 172.157 34.5619 166.455 27.3361 161.633C22.3786 158.361 18.1151 154.432 15.4132 149.029C14.915 148.135 14.4999 147.196 14.174 146.227C14.0761 146.148 13.9946 146.05 13.9377 145.94C13.8807 145.829 13.8474 145.706 13.84 145.581C13.8338 145.456 13.853 145.33 13.8976 145.213C13.9422 145.096 14.0109 144.989 14.0988 144.901C14.4829 144.368 14.9913 143.959 15.3878 143.439C16.1067 142.658 16.8139 143.228 17.5451 143.439C23.7742 145.386 30.1732 146.742 36.6564 147.492C46.3152 148.529 56.0798 147.123 65.0519 143.402C76.2066 138.866 85.3165 131.429 93.4718 122.704C105.593 109.727 115.274 94.9526 125.164 80.315C134.113 67.078 143.074 53.8284 153.671 41.7564C163.066 30.986 173.626 21.6283 186.479 15.109C191.27 12.6761 196.306 10.7569 201.5 9.3824C205.045 8.45291 205.107 8.45371 206.272 11.8619C208.452 18.1543 211.761 23.997 216.038 29.1021C223.537 38.0383 232.672 44.5083 244.198 47.1978C246.92 47.9079 249.726 48.2463 252.539 48.2017C257.819 47.9786 263.087 48.5363 268.367 47.7554C277.664 46.3288 286.327 42.1689 293.254 35.8072C300.877 29.216 306.595 20.7034 309.814 11.1549ZM231.756 84.9762C230.579 84.121 229.748 84.1708 229.017 85.2984C228.286 86.4263 227.443 87.4925 226.687 88.608C225.274 90.7149 225.274 90.7767 227.43 92.3258C232.735 96.1308 238.064 99.8866 243.357 103.716C245.195 104.87 246.917 106.199 248.5 107.682C248.421 107.997 248.272 108.292 248.067 108.544C247.862 108.796 247.603 109.003 247.311 109.145C241.461 113.347 235.635 117.573 229.785 121.762C224.369 125.654 224.765 124.204 228.484 129.695C229.983 131.864 230.108 131.814 232.202 130.426C232.574 130.179 232.933 129.881 233.292 129.621L252.219 115.987C253.718 114.933 255.205 113.843 257.176 114.648C257.434 114.755 257.71 114.81 257.988 114.81C258.267 114.81 258.544 114.755 258.8 114.648C260.473 114.004 261.836 114.71 263.175 115.665L282.373 129.434C286.116 132.099 285.522 132.198 288.199 128.48C291.186 124.341 290.838 125.109 287.12 122.432C281.109 118.119 275.036 113.818 269.037 109.443C266.881 107.881 266.93 107.769 269.149 106.17C274.689 102.142 280.316 98.1886 285.844 94.1109C291.607 89.8721 291.335 91.9666 286.985 85.4351C286.105 84.0966 285.335 84.1207 284.022 85.0875C277.205 90.0575 270.301 94.9038 263.41 99.7623C261.873 100.828 260.51 102.874 258.23 101.003C258.132 100.947 258.02 100.918 257.907 100.918C257.795 100.918 257.684 100.947 257.585 101.003C255.429 102.762 254.065 100.865 252.627 99.8492C245.629 94.9486 238.672 89.9907 231.756 84.9762ZM192.332 24.5279C191.71 24.4821 191.089 24.6298 190.555 24.9508C188.894 25.9299 187.22 26.8469 185.597 27.8385C173.938 35.1249 163.533 44.2499 154.785 54.858C148.137 62.7965 141.965 71.1245 136.305 79.7955C130.356 88.7812 124.419 97.7923 118.879 107.063C118.012 108.055 117.887 109.542 116.735 110.273C116.697 110.645 116.424 110.843 116.164 111.066C115.805 111.438 115.941 112.083 115.458 112.405C115.29 112.806 115.078 113.188 114.826 113.545C114.606 113.86 114.361 114.158 114.095 114.437C113.957 114.685 113.873 114.959 113.847 115.243C113.869 115.453 113.964 115.65 114.115 115.8C114.266 115.949 114.465 116.041 114.677 116.061L115.062 115.875C115.285 115.689 115.496 115.49 115.706 115.28C115.896 115.057 116.099 114.846 116.314 114.648C118.024 112.9 119.176 110.719 121.085 109.182C122.005 108.514 122.783 107.672 123.378 106.704C127.626 101.316 131.847 95.9078 136.045 90.4791C142.226 82.2184 148.854 74.3035 155.901 66.7691C165.663 56.6183 176.778 47.8588 188.931 40.7408C191.224 39.3899 191.249 39.3285 192.946 41.4722C198.001 47.9432 203.828 53.7704 210.299 58.8248C219.945 66.483 231.261 71.7569 243.329 74.2183C250.109 75.5321 256.913 75.3212 263.742 75.1353C273.909 74.7437 283.845 71.9855 292.758 67.0787C304.312 60.9188 314.412 52.357 322.38 41.9683C324.499 39.2542 324.561 39.2049 327.535 41.0142C337.955 47.2745 347.631 54.6957 356.377 63.1373C365.103 71.6273 372.613 81.1715 380.05 90.7769C384.313 96.2799 388.305 101.993 393.089 107.075C394.209 108.041 395.15 109.201 395.865 110.496C396.039 110.542 396.195 110.634 396.32 110.763C396.444 110.892 396.531 111.052 396.571 111.227C396.747 111.267 396.909 111.358 397.034 111.488C397.159 111.618 397.245 111.782 397.278 111.959C398.133 112.615 398.617 113.657 399.546 114.214C400.872 115.032 401.417 114.722 400.872 113.136C399.11 110.749 397.519 108.238 396.113 105.625C395.742 104.943 395.419 104.225 394.997 103.568C391.775 98.5484 388.49 93.5781 385.305 88.5338C376.468 74.5655 367.036 61.018 355.72 48.8717C347.325 39.7498 337.587 31.9639 326.842 25.7818C325.893 25.0953 324.731 24.7662 323.563 24.8541C322.394 24.9433 321.293 25.4425 320.458 26.2642C316.145 29.7222 312.44 33.8751 308.437 37.5933C300.108 45.4513 291.196 52.4043 280.723 57.1265C275.046 59.7045 269.22 62.3939 262.652 61.8609C259.521 61.6317 256.376 61.6316 253.244 61.8609C250.205 62.0381 247.16 61.6168 244.283 60.6217C233.689 57.0906 223.859 51.58 215.319 44.3853C209.655 39.7376 204.35 34.7177 199.206 29.5123C197.636 27.9 195.899 26.457 194.026 25.2115C193.546 24.8137 192.953 24.575 192.332 24.5279Z" fill="#5D87FF"/>
<path d="M309.479 354.86C308.512 352.319 307.632 349.903 306.69 347.523C306.135 346.046 305.853 344.479 305.86 342.9C305.86 339.851 307.57 338.14 310.644 337.942C313.235 337.755 315.837 338.154 318.254 339.107C319.084 339.429 319.915 339.789 320.733 340.062C322.344 340.582 322.604 340.347 322.765 338.562C322.883 337.61 322.765 336.643 322.425 335.747C322.084 334.85 321.528 334.05 320.807 333.418C318.554 331.371 316.567 329.047 314.895 326.502C313.705 324.843 313.115 322.827 313.222 320.789C313.255 320.166 313.437 319.563 313.755 319.027C314.072 318.492 314.515 318.042 315.044 317.715C316.356 316.953 317.858 316.576 319.376 316.628C320.893 316.681 322.364 317.161 323.621 318.012C328.689 321.76 334.011 325.151 339.547 328.163C340.259 328.495 340.855 329.033 341.259 329.706C341.664 330.379 341.857 331.159 341.815 331.943C341.939 337.31 340.08 342.107 337.626 346.705C333.524 354.427 327.859 360.983 321.861 367.242C314.771 374.679 307.223 381.533 299.439 388.188C298.091 389.382 296.816 390.657 295.622 392.006C295.276 392.45 294.793 392.764 294.247 392.904C293.702 393.043 293.127 392.997 292.61 392.774C287.727 391.064 282.695 386.168 283.501 379.339C283.528 378.075 284.026 376.866 284.897 375.949C285.767 375.032 286.95 374.473 288.21 374.381C290 374.138 291.819 374.228 293.577 374.641C297.196 375.46 299.092 373.563 298.349 369.857C297.927 367.763 297.407 365.693 296.923 363.66C296.816 363.343 296.725 363.019 296.651 362.693C296.006 357.339 296.824 354.501 303.294 354.65C305.314 354.699 307.297 355.232 309.479 354.86Z" fill="#5D87FF"/>
<path d="M206.556 354.687C208.973 354.687 211.315 354.625 213.658 354.687C218.479 354.86 220.326 357.29 219.273 362.012C218.777 364.206 218.157 366.362 217.699 368.556C217.466 369.541 217.374 370.555 217.426 371.568C217.395 372.104 217.498 372.642 217.723 373.131C217.95 373.619 218.295 374.043 218.726 374.366C219.156 374.689 219.661 374.899 220.193 374.98C220.725 375.06 221.269 375.008 221.776 374.827C223.525 374.387 225.331 374.216 227.131 374.319C228.504 374.337 229.819 374.877 230.807 375.83C231.794 376.784 232.382 378.078 232.448 379.45C233.092 385.053 228.99 391.089 222.755 392.811C222.27 392.95 221.751 392.937 221.273 392.772C220.795 392.608 220.378 392.302 220.078 391.894C211.142 383.218 201.388 375.298 192.898 366.114C186.49 359.173 180.318 351.985 176.512 343.16C174.955 339.774 174.11 336.103 174.034 332.377C173.946 331.485 174.137 330.586 174.58 329.807C175.024 329.027 175.699 328.405 176.512 328.027C181.976 325.11 187.201 321.77 192.142 318.037C194.893 315.992 197.669 316.401 200.446 317.529C202.59 318.396 203.247 320.9 202.317 323.726C201.223 326.449 199.577 328.918 197.484 330.977C196.591 331.981 195.587 332.91 194.633 333.864C193.82 334.653 193.251 335.66 192.997 336.765C192.786 337.291 192.71 337.863 192.78 338.427C192.849 338.991 193.061 339.527 193.393 339.987C194.261 340.855 195.277 339.987 196.195 339.653C198.883 338.466 201.798 337.883 204.734 337.942C208.663 338.14 210.448 340.173 209.965 344.139C209.495 346.917 208.661 349.621 207.486 352.183C207.139 353.001 206.333 353.782 206.556 354.687Z" fill="#5D87FF"/>
</g>
<defs>
<clipPath id="clip0_3122_1500">
<rect width="512" height="512" rx="22.5" fill="white"/>
</clipPath>
</defs>
</svg>
